<svg xmlns="http://www.w3.org/2000/svg" xmlns:xlink="http://www.w3.org/1999/xlink" width="139" zoomAndPan="magnify" viewBox="0 0 104.25 119.249998" height="159" preserveAspectRatio="xMidYMid meet" version="1.0"><defs><clipPath id="ba6dd52455"><path d="M 36 33 L 102.761719 33 L 102.761719 81 L 36 81 Z M 36 33 " clip-rule="nonzero"/></clipPath><clipPath id="abb557d63a"><path d="M 0 71 L 96 71 L 96 118.453125 L 0 118.453125 Z M 0 71 " clip-rule="nonzero"/></clipPath><clipPath id="dfd502d7c0"><path d="M 7 0.0546875 L 102.761719 0.0546875 L 102.761719 47 L 7 47 Z M 7 0.0546875 " clip-rule="nonzero"/></clipPath><clipPath id="351968587c"><path d="M 90.777344 21.820312 L 103.148438 21.820312 L 103.148438 34.191406 L 90.777344 34.191406 Z M 90.777344 21.820312 " clip-rule="nonzero"/></clipPath><clipPath id="eb88bf12c6"><path d="M 96.960938 21.820312 C 93.546875 21.820312 90.777344 24.589844 90.777344 28.007812 C 90.777344 31.421875 93.546875 34.191406 96.960938 34.191406 C 100.378906 34.191406 103.148438 31.421875 103.148438 28.007812 C 103.148438 24.589844 100.378906 21.820312 96.960938 21.820312 Z M 96.960938 21.820312 " clip-rule="nonzero"/></clipPath><clipPath id="f48f929889"><path d="M 0.777344 0.820312 L 13.148438 0.820312 L 13.148438 13.191406 L 0.777344 13.191406 Z M 0.777344 0.820312 " clip-rule="nonzero"/></clipPath><clipPath id="f37dfcb9bb"><path d="M 6.960938 0.820312 C 3.546875 0.820312 0.777344 3.589844 0.777344 7.007812 C 0.777344 10.421875 3.546875 13.191406 6.960938 13.191406 C 10.378906 13.191406 13.148438 10.421875 13.148438 7.007812 C 13.148438 3.589844 10.378906 0.820312 6.960938 0.820312 Z M 6.960938 0.820312 " clip-rule="nonzero"/></clipPath><clipPath id="a9eaeb2699"><rect x="0" width="14" y="0" height="14"/></clipPath></defs><path fill="#0585f5" d="M 51.378906 67.6875 L 36.703125 59.253906 L 14.675781 46.578125 L 0 38.117188 L 0 55.035156 L 14.675781 63.46875 L 29.351562 71.929688 L 51.378906 84.582031 L 66.058594 76.144531 Z M 51.378906 67.6875 " fill-opacity="1" fill-rule="evenodd"/><g clip-path="url(#ba6dd52455)"><path fill="#0585f5" d="M 51.378906 50.792969 L 66.058594 59.253906 L 88.085938 71.929688 L 102.761719 80.363281 L 102.761719 63.46875 L 88.085938 55.035156 L 73.40625 46.578125 L 51.378906 33.902344 L 36.703125 42.359375 Z M 51.378906 50.792969 " fill-opacity="1" fill-rule="evenodd"/></g><g clip-path="url(#abb557d63a)"><path fill="#0585f5" d="M 80.734375 84.582031 L 66.058594 93.039062 L 51.378906 101.496094 L 14.675781 80.363281 L 0 71.929688 L 0 88.820312 L 25.703125 103.59375 L 51.378906 118.390625 L 77.058594 103.59375 L 80.734375 101.496094 L 95.410156 93.039062 Z M 80.734375 84.582031 " fill-opacity="1" fill-rule="evenodd"/></g><g clip-path="url(#dfd502d7c0)"><path fill="#0585f5" d="M 72.609375 29.226562 L 88.085938 38.117188 L 102.761719 46.578125 L 102.761719 29.683594 L 77.058594 14.886719 L 51.378906 0.113281 L 25.703125 14.886719 L 22.027344 17.007812 L 7.351562 25.464844 L 22.027344 33.902344 L 36.703125 25.464844 L 51.378906 17.007812 Z M 72.609375 29.226562 " fill-opacity="1" fill-rule="evenodd"/></g><g clip-path="url(#351968587c)"><g clip-path="url(#eb88bf12c6)"><g transform="matrix(1, 0, 0, 1, 90, 21)"><g clip-path="url(#a9eaeb2699)"><g clip-path="url(#f48f929889)"><g clip-path="url(#f37dfcb9bb)"><path fill="#0585f5" d="M 0.777344 0.820312 L 13.148438 0.820312 L 13.148438 13.191406 L 0.777344 13.191406 Z M 0.777344 0.820312 " fill-opacity="1" fill-rule="nonzero"/></g></g></g></g></g></g></svg>